<?xml version="1.0" encoding="UTF-8"?>
<!DOCTYPE svg PUBLIC "-//W3C//DTD SVG 1.1//EN" "http://www.w3.org/Graphics/SVG/1.1/DTD/svg11.dtd">
<svg xmlns="http://www.w3.org/2000/svg" version="1.1" width="144px" height="120px" style="shape-rendering:geometricPrecision; text-rendering:geometricPrecision; image-rendering:optimizeQuality; fill-rule:evenodd; clip-rule:evenodd" xmlns:xlink="http://www.w3.org/1999/xlink">
<g><path style="opacity:1" fill="#fefcf5" d="M -0.5,-0.5 C 20.8333,-0.5 42.1667,-0.5 63.5,-0.5C 62.7629,1.30459 61.7629,2.97125 60.5,4.5C 61.0253,5.19238 61.6919,5.69238 62.5,6C 59.9528,6.65955 57.4528,6.49288 55,5.5C 53.902,6.38391 53.402,7.38391 53.5,8.5C 48.0392,8.32857 43.8726,5.66191 41,0.5C 38.3693,5.90312 35.7027,6.23645 33,1.5C 32.0975,2.70143 30.9308,3.53476 29.5,4C 31.3008,4.31732 31.6341,4.98398 30.5,6C 31.7839,6.68379 32.9505,6.51712 34,5.5C 36.1667,7 36,8.16667 33.5,9C 36.0469,8.84036 38.2136,7.67369 40,5.5C 40.4962,7.03491 40.3295,8.53491 39.5,10C 39.6387,11.301 40.3054,12.1344 41.5,12.5C 35.5603,13.4812 29.5603,14.8146 23.5,16.5C 20.9735,23.0048 18.3068,29.3381 15.5,35.5C 12.4017,35.4125 12.0684,35.9125 14.5,37C 13.2161,37.6838 12.0495,37.5171 11,36.5C 10.6667,37.1667 10.3333,37.8333 10,38.5C 7.28307,37.1159 4.6164,36.1159 2,35.5C 1.09789,35.7432 0.264561,36.0766 -0.5,36.5C -0.5,24.1667 -0.5,11.8333 -0.5,-0.5 Z"/></g>
<g><path style="opacity:1" fill="#fdfaf5" d="M 63.5,-0.5 C 77.1667,-0.5 90.8333,-0.5 104.5,-0.5C 103.282,0.161445 101.949,0.828112 100.5,1.5C 101.782,3.17923 102.782,5.01256 103.5,7C 102.262,6.92273 101.262,7.0894 100.5,7.5C 102.848,9.59261 105.182,11.5926 107.5,13.5C 85.5252,11.4174 63.5252,11.0841 41.5,12.5C 40.3054,12.1344 39.6387,11.301 39.5,10C 40.3295,8.53491 40.4962,7.03491 40,5.5C 38.2136,7.67369 36.0469,8.84036 33.5,9C 36,8.16667 36.1667,7 34,5.5C 32.9505,6.51712 31.7839,6.68379 30.5,6C 31.6341,4.98398 31.3008,4.31732 29.5,4C 30.9308,3.53476 32.0975,2.70143 33,1.5C 35.7027,6.23645 38.3693,5.90312 41,0.5C 43.8726,5.66191 48.0392,8.32857 53.5,8.5C 53.402,7.38391 53.902,6.38391 55,5.5C 57.4528,6.49288 59.9528,6.65955 62.5,6C 61.6919,5.69238 61.0253,5.19238 60.5,4.5C 61.7629,2.97125 62.7629,1.30459 63.5,-0.5 Z"/></g>
<g><path style="opacity:1" fill="#ff4947" d="M 140.5,-0.5 C 141.5,-0.5 142.5,-0.5 143.5,-0.5C 143.5,0.5 143.5,1.5 143.5,2.5C 142.167,1.83333 141.167,0.833333 140.5,-0.5 Z"/></g>
<g><path style="opacity:1" fill="#fefbf5" d="M 104.5,-0.5 C 116.5,-0.5 128.5,-0.5 140.5,-0.5C 141.167,0.833333 142.167,1.83333 143.5,2.5C 143.5,41.5 143.5,80.5 143.5,119.5C 137.833,119.5 132.167,119.5 126.5,119.5C 124.674,118.852 122.674,117.686 120.5,116C 122.044,115.71 123.377,115.044 124.5,114C 121.901,113.231 119.401,113.398 117,114.5C 116.536,113.906 116.369,113.239 116.5,112.5C 119.85,112.665 123.183,112.498 126.5,112C 127.308,111.692 127.975,111.192 128.5,110.5C 129.462,103.892 129.795,97.2257 129.5,90.5C 133.056,88.7823 135.89,86.1157 138,82.5C 138.667,72.5 138.667,62.5 138,52.5C 134.912,49.9186 132.412,46.9186 130.5,43.5C 127.013,34.5212 123.513,25.5212 120,16.5C 115.865,15.3391 111.698,14.3391 107.5,13.5C 105.182,11.5926 102.848,9.59261 100.5,7.5C 101.262,7.0894 102.262,6.92273 103.5,7C 102.782,5.01256 101.782,3.17923 100.5,1.5C 101.949,0.828112 103.282,0.161445 104.5,-0.5 Z"/></g>
<g><path style="opacity:1" fill="#4f4a45" d="M 107.5,13.5 C 111.698,14.3391 115.865,15.3391 120,16.5C 123.513,25.5212 127.013,34.5212 130.5,43.5C 129.778,43.9175 129.278,44.5842 129,45.5C 128.033,44.3224 127.533,42.989 127.5,41.5C 125.805,42.1744 124.138,42.8411 122.5,43.5C 120.5,38.8333 118.5,34.1667 116.5,29.5C 116.064,27.2537 115.397,25.0871 114.5,23C 105.23,21.4396 95.8963,20.6063 86.5,20.5C 75.8333,19.1667 65.1667,19.1667 54.5,20.5C 46.1008,20.6733 37.7675,21.5066 29.5,23C 26.3813,30.2095 23.3813,37.3761 20.5,44.5C 18.9256,44.0629 17.7589,43.0629 17,41.5C 15.9563,42.6226 15.2896,43.9559 15,45.5C 14.3292,44.7476 13.4959,44.4142 12.5,44.5C 13.7837,41.5982 14.7837,38.5982 15.5,35.5C 18.3068,29.3381 20.9735,23.0048 23.5,16.5C 29.5603,14.8146 35.5603,13.4812 41.5,12.5C 63.5252,11.0841 85.5252,11.4174 107.5,13.5 Z"/></g>
<g><path style="opacity:1" fill="#fdf9f5" d="M 86.5,20.5 C 95.8963,20.6063 105.23,21.4396 114.5,23C 115.397,25.0871 116.064,27.2537 116.5,29.5C 116.808,31.924 116.474,34.2573 115.5,36.5C 114.914,36.2907 114.414,35.9574 114,35.5C 111.762,37.6043 110.762,39.9376 111,42.5C 110,40.8333 109,39.1667 108,37.5C 107.626,38.4162 107.126,39.2496 106.5,40C 104.579,40.3603 102.912,41.1936 101.5,42.5C 101.709,43.086 102.043,43.586 102.5,44C 97.0851,44.5067 96.0851,42.5067 99.5,38C 97.2078,35.9762 96.5411,36.3095 97.5,39C 96.1092,40.6501 94.6092,41.1501 93,40.5C 92.5172,41.448 92.3505,42.448 92.5,43.5C 85.9325,44.7093 80.5992,42.876 76.5,38C 77.1667,37.3333 77.8333,36.6667 78.5,36C 76.9222,34.8595 75.2555,34.3595 73.5,34.5C 72.1667,33.5 72.1667,32.5 73.5,31.5C 74.1924,32.0253 74.6924,32.6919 75,33.5C 75.7504,32.8742 76.5838,32.3742 77.5,32C 75.088,29.588 73.088,27.588 71.5,26C 72.5,25.6667 73.5,25.3333 74.5,25C 74.0338,23.7012 74.0338,22.2012 74.5,20.5C 78.5,20.5 82.5,20.5 86.5,20.5 Z"/></g>
<g><path style="opacity:1" fill="#fbf8f3" d="M 54.5,20.5 C 54.7828,21.2891 55.2828,21.9558 56,22.5C 62.0756,20.4031 63.5756,22.0698 60.5,27.5C 61.5,28.1667 62.5,28.8333 63.5,29.5C 63.8645,31.7326 64.8645,33.566 66.5,35C 64.892,35.658 63.7253,35.158 63,33.5C 61.8333,35 60.6667,36.5 59.5,38C 60.1667,38.3333 60.8333,38.6667 61.5,39C 59.3185,41.3669 56.9852,43.2002 54.5,44.5C 43.9895,45.0307 33.4895,45.6974 23,46.5C 21.6244,46.3158 20.7911,45.6491 20.5,44.5C 23.3813,37.3761 26.3813,30.2095 29.5,23C 37.7675,21.5066 46.1008,20.6733 54.5,20.5 Z"/></g>
<g><path style="opacity:1" fill="#f4f1ed" d="M 86.5,20.5 C 82.5,20.5 78.5,20.5 74.5,20.5C 74.0338,22.2012 74.0338,23.7012 74.5,25C 73.5,25.3333 72.5,25.6667 71.5,26C 73.088,27.588 75.088,29.588 77.5,32C 76.5838,32.3742 75.7504,32.8742 75,33.5C 74.6924,32.6919 74.1924,32.0253 73.5,31.5C 72.1667,32.5 72.1667,33.5 73.5,34.5C 75.2555,34.3595 76.9222,34.8595 78.5,36C 77.8333,36.6667 77.1667,37.3333 76.5,38C 80.5992,42.876 85.9325,44.7093 92.5,43.5C 92.3505,42.448 92.5172,41.448 93,40.5C 94.6092,41.1501 96.1092,40.6501 97.5,39C 96.5411,36.3095 97.2078,35.9762 99.5,38C 96.0851,42.5067 97.0851,44.5067 102.5,44C 102.043,43.586 101.709,43.086 101.5,42.5C 102.912,41.1936 104.579,40.3603 106.5,40C 107.126,39.2496 107.626,38.4162 108,37.5C 109,39.1667 110,40.8333 111,42.5C 110.762,39.9376 111.762,37.6043 114,35.5C 114.414,35.9574 114.914,36.2907 115.5,36.5C 116.474,34.2573 116.808,31.924 116.5,29.5C 118.5,34.1667 120.5,38.8333 122.5,43.5C 122.5,44.5 122.5,45.5 122.5,46.5C 111.167,45.8333 99.8333,45.1667 88.5,44.5C 88.1667,44.5 87.8333,44.5 87.5,44.5C 76.5,44.5 65.5,44.5 54.5,44.5C 56.9852,43.2002 59.3185,41.3669 61.5,39C 60.8333,38.6667 60.1667,38.3333 59.5,38C 60.6667,36.5 61.8333,35 63,33.5C 63.7253,35.158 64.892,35.658 66.5,35C 64.8645,33.566 63.8645,31.7326 63.5,29.5C 62.5,28.8333 61.5,28.1667 60.5,27.5C 63.5756,22.0698 62.0756,20.4031 56,22.5C 55.2828,21.9558 54.7828,21.2891 54.5,20.5C 65.1667,19.1667 75.8333,19.1667 86.5,20.5 Z"/></g>
<g><path style="opacity:1" fill="#45413d" d="M 86.5,46.5 C 86.4959,48.8421 85.6625,50.8421 84,52.5C 83.4921,50.0958 82.3255,49.4291 80.5,50.5C 81.9023,51.8425 81.5689,52.6758 79.5,53C 80.6341,54.016 80.3008,54.6827 78.5,55C 78.8333,55.3333 79.1667,55.6667 79.5,56C 78.2298,56.8996 77.2298,58.0663 76.5,59.5C 75.7132,58.7579 75.0465,57.9246 74.5,57C 76.2826,55.9335 76.7826,54.4335 76,52.5C 75.6667,53.5 75.3333,54.5 75,55.5C 72.7624,52.9201 70.5957,53.0868 68.5,56C 69.8583,57.8316 70.1916,59.6649 69.5,61.5C 70.6872,62.5195 71.6872,63.6861 72.5,65C 72.0338,66.2988 72.0338,67.7988 72.5,69.5C 73.6949,72.2408 75.3615,73.7408 77.5,74C 76.2885,74.2541 75.1218,75.0874 74,76.5C 73.5291,74.7536 72.8624,73.087 72,71.5C 71.2496,72.1258 70.4162,72.6258 69.5,73C 70.9733,73.7096 71.6399,74.8762 71.5,76.5C 66.7641,76.8853 66.4307,78.2186 70.5,80.5C 71.2494,78.9884 72.416,77.9884 74,77.5C 75.0544,78.4824 75.5544,79.6491 75.5,81C 74.1092,82.6501 72.6092,83.1501 71,82.5C 70.2924,85.2676 68.7924,86.1009 66.5,85C 67.2931,86.0852 67.9598,87.2519 68.5,88.5C 69.365,89.5827 70.365,89.7494 71.5,89C 70.5494,88.2825 70.3828,87.4491 71,86.5C 72.8398,86.4877 74.6731,85.6544 76.5,84C 75.3044,83.3457 75.3044,82.8457 76.5,82.5C 77.8333,85.1667 79.1667,85.1667 80.5,82.5C 82.5311,83.5387 83.8645,85.2054 84.5,87.5C 85.1667,85.5 85.8333,83.5 86.5,81.5C 87.2421,83.1082 87.4087,84.7749 87,86.5C 89.3233,82.5782 89.8233,82.9115 88.5,87.5C 89.9014,88.5207 91.2347,89.5207 92.5,90.5C 80.8333,90.5 69.1667,90.5 57.5,90.5C 58.209,89.596 59.209,89.2627 60.5,89.5C 60.3832,87.5165 61.0499,85.8498 62.5,84.5C 62.8333,85.1667 63.1667,85.8333 63.5,86.5C 64.8281,83.5838 66.8281,82.4171 69.5,83C 67.5,78.8398 65.3333,79.0064 63,83.5C 61.4356,81.3697 61.4356,79.3697 63,77.5C 63.3333,78.5 63.6667,79.5 64,80.5C 64.3095,79.2341 64.8095,78.0674 65.5,77C 65.1667,76.6667 64.8333,76.3333 64.5,76C 66.9639,74.1648 66.9639,72.1648 64.5,70C 65.8333,68.3333 65.8333,66.6667 64.5,65C 64.9031,63.5272 65.5697,62.1939 66.5,61C 64.5,59.6667 62.5,58.3333 60.5,57C 61.1667,56.6667 61.8333,56.3333 62.5,56C 59.5394,54.7353 56.5394,53.5686 53.5,52.5C 52.4937,52.9377 52.4937,53.6043 53.5,54.5C 55.3868,55.6656 57.0535,56.3322 58.5,56.5C 56.4332,57.1341 54.5998,58.1341 53,59.5C 52.3828,58.5509 52.5494,57.7175 53.5,57C 52.9747,56.3076 52.3081,55.8076 51.5,55.5C 50.638,57.879 50.3046,60.5456 50.5,63.5C 49.5224,63.9767 48.6891,64.6433 48,65.5C 46.6667,62.8333 45.3333,62.8333 44,65.5C 43.2588,64.3595 42.4255,64.3595 41.5,65.5C 40.8333,64.8333 40.1667,64.1667 39.5,63.5C 38.8933,63.6236 38.56,63.9569 38.5,64.5C 38.1511,60.8197 36.4845,57.8197 33.5,55.5C 31.369,54.6862 29.0356,54.1862 26.5,54C 26.8333,53.6667 27.1667,53.3333 27.5,53C 26.1667,52.3333 25.1667,51.3333 24.5,50C 27.1514,47.7283 30.318,46.5616 34,46.5C 36.9478,47.036 39.7811,47.036 42.5,46.5C 43.1924,47.0253 43.6924,47.6919 44,48.5C 46.6667,47.8333 49.3333,47.1667 52,46.5C 54.0955,47.7155 53.9288,48.5488 51.5,49C 53.6585,51.5161 55.9918,51.8494 58.5,50C 58.1667,49.6667 57.8333,49.3333 57.5,49C 59.4406,48.2571 61.2739,48.4238 63,49.5C 63.2492,48.376 63.7492,47.376 64.5,46.5C 67.0657,47.8056 68.0657,49.6389 67.5,52C 70.3832,52.7954 71.8832,51.6287 72,48.5C 74.4884,49.647 76.4884,51.3137 78,53.5C 78.6889,50.6706 77.5222,49.0039 74.5,48.5C 74.9377,47.4937 75.6043,47.4937 76.5,48.5C 77.1667,47.8333 77.8333,47.1667 78.5,46.5C 81.2684,46.6545 83.935,46.6545 86.5,46.5 Z"/></g>
<g><path style="opacity:1" fill="#f9f6f1" d="M 33.5,55.5 C 36.4845,57.8197 38.1511,60.8197 38.5,64.5C 38.8685,67.5331 38.2018,70.1998 36.5,72.5C 29.5,72.5 22.5,72.5 15.5,72.5C 14.1779,72.67 13.0113,72.3366 12,71.5C 11.5006,66.1771 11.334,60.8437 11.5,55.5C 18.8333,55.5 26.1667,55.5 33.5,55.5 Z"/></g>
<g><path style="opacity:1" fill="#45403d" d="M 87.5,44.5 C 87.8333,44.5 88.1667,44.5 88.5,44.5C 88.3433,45.8734 88.51,47.2068 89,48.5C 90.8846,46.2846 92.7179,46.6179 94.5,49.5C 95.4776,49.0233 96.3109,48.3567 97,47.5C 97.6259,49.9913 98.4593,49.9913 99.5,47.5C 100.5,48.1667 101.5,48.8333 102.5,49.5C 103.951,47.4411 105.951,46.4411 108.5,46.5C 108.5,47.5 108.5,48.5 108.5,49.5C 110.92,49.7076 113.253,49.3742 115.5,48.5C 116.478,48.9767 117.311,49.6433 118,50.5C 118.965,48.7397 120.132,48.4063 121.5,49.5C 120.544,51.0754 119.877,52.742 119.5,54.5C 109.346,52.4869 104.679,56.6535 105.5,67C 105.508,68.7067 105.842,70.2067 106.5,71.5C 109.625,72.4794 112.958,72.8128 116.5,72.5C 115.373,75.5285 113.873,75.8619 112,73.5C 110.118,74.0933 109.118,75.4267 109,77.5C 107.933,76.8095 106.766,76.3095 105.5,76C 105.833,75.6667 106.167,75.3333 106.5,75C 104.749,73.4511 103.083,72.6178 101.5,72.5C 104.362,71.6941 104.862,70.3607 103,68.5C 102.667,69.1667 102.333,69.8333 102,70.5C 100.637,68.2157 99.1371,68.049 97.5,70C 97.8333,70.3333 98.1667,70.6667 98.5,71C 97.2068,71.49 95.8734,71.6567 94.5,71.5C 94.5792,72.9305 94.2458,74.2638 93.5,75.5C 94.0253,76.1924 94.6919,76.6924 95.5,77C 93.8353,77.7885 92.1686,78.1218 90.5,78C 91.3567,77.3109 92.0233,76.4776 92.5,75.5C 90.8035,74.6364 89.6368,73.3031 89,71.5C 86.7943,75.5307 86.2943,75.3641 87.5,71C 86.4787,67.6913 85.4787,67.6913 84.5,71C 85.2913,72.101 85.2913,72.9344 84.5,73.5C 83.7492,72.624 83.2492,71.624 83,70.5C 82.5848,72.2909 81.5848,73.6243 80,74.5C 80.4824,72.5921 81.1491,70.5921 82,68.5C 83.3561,67.6198 84.8561,67.2865 86.5,67.5C 86.3832,65.5165 87.0499,63.8498 88.5,62.5C 86.6707,61.7176 85.1707,62.3843 84,64.5C 81.9033,64.6938 79.7366,64.6938 77.5,64.5C 76.7956,67.2046 75.1289,68.8713 72.5,69.5C 72.0338,67.7988 72.0338,66.2988 72.5,65C 71.6872,63.6861 70.6872,62.5195 69.5,61.5C 70.1916,59.6649 69.8583,57.8316 68.5,56C 70.5957,53.0868 72.7624,52.9201 75,55.5C 75.3333,54.5 75.6667,53.5 76,52.5C 76.7826,54.4335 76.2826,55.9335 74.5,57C 75.0465,57.9246 75.7132,58.7579 76.5,59.5C 77.2298,58.0663 78.2298,56.8996 79.5,56C 79.1667,55.6667 78.8333,55.3333 78.5,55C 80.3008,54.6827 80.6341,54.016 79.5,53C 81.5689,52.6758 81.9023,51.8425 80.5,50.5C 82.3255,49.4291 83.4921,50.0958 84,52.5C 85.6625,50.8421 86.4959,48.8421 86.5,46.5C 86.8333,45.8333 87.1667,45.1667 87.5,44.5 Z"/></g>
<g><path style="opacity:1" fill="#f8f5ef" d="M 119.5,54.5 C 123.182,54.3347 126.848,54.5014 130.5,55C 131,55.5 131.5,56 132,56.5C 132.667,61.1667 132.667,65.8333 132,70.5C 123.585,71.4832 115.085,71.8166 106.5,71.5C 105.842,70.2067 105.508,68.7067 105.5,67C 104.679,56.6535 109.346,52.4869 119.5,54.5 Z"/></g>
<g><path style="opacity:1" fill="#504a45" d="M 20.5,44.5 C 20.7911,45.6491 21.6244,46.3158 23,46.5C 33.4895,45.6974 43.9895,45.0307 54.5,44.5C 65.5,44.5 76.5,44.5 87.5,44.5C 87.1667,45.1667 86.8333,45.8333 86.5,46.5C 83.935,46.6545 81.2684,46.6545 78.5,46.5C 77.8333,47.1667 77.1667,47.8333 76.5,48.5C 75.6043,47.4937 74.9377,47.4937 74.5,48.5C 77.5222,49.0039 78.6889,50.6706 78,53.5C 76.4884,51.3137 74.4884,49.647 72,48.5C 71.8832,51.6287 70.3832,52.7954 67.5,52C 68.0657,49.6389 67.0657,47.8056 64.5,46.5C 63.7492,47.376 63.2492,48.376 63,49.5C 61.2739,48.4238 59.4406,48.2571 57.5,49C 57.8333,49.3333 58.1667,49.6667 58.5,50C 55.9918,51.8494 53.6585,51.5161 51.5,49C 53.9288,48.5488 54.0955,47.7155 52,46.5C 49.3333,47.1667 46.6667,47.8333 44,48.5C 43.6924,47.6919 43.1924,47.0253 42.5,46.5C 39.7811,47.036 36.9478,47.036 34,46.5C 30.318,46.5616 27.1514,47.7283 24.5,50C 25.1667,51.3333 26.1667,52.3333 27.5,53C 27.1667,53.3333 26.8333,53.6667 26.5,54C 29.0356,54.1862 31.369,54.6862 33.5,55.5C 26.1667,55.5 18.8333,55.5 11.5,55.5C 11.334,60.8437 11.5006,66.1771 12,71.5C 13.0113,72.3366 14.1779,72.67 15.5,72.5C 15.4977,74.571 15.8311,76.7377 16.5,79C 15.9747,79.6924 15.3081,80.1924 14.5,80.5C 13.5896,78.3451 12.4229,76.3451 11,74.5C 10.2888,76.3668 10.7888,77.8668 12.5,79C 11.3224,79.9669 9.98902,80.4669 8.5,80.5C 7.57131,81.6888 7.23798,83.0222 7.5,84.5C 6.77842,84.0825 6.27842,83.4158 6,82.5C 5.33333,72.5 5.33333,62.5 6,52.5C 8.7585,50.2488 10.9252,47.5821 12.5,44.5C 13.4959,44.4142 14.3292,44.7476 15,45.5C 15.2896,43.9559 15.9563,42.6226 17,41.5C 17.7589,43.0629 18.9256,44.0629 20.5,44.5 Z"/></g>
<g><path style="opacity:1" fill="#3f3b38" d="M 57.5,90.5 C 53.5,90.5 49.5,90.5 45.5,90.5C 44.8091,88.9778 43.6424,87.9778 42,87.5C 39.2024,87.8577 36.5357,87.8577 34,87.5C 33.5439,86.2559 34.0439,85.4226 35.5,85C 34.8333,84.6667 34.1667,84.3333 33.5,84C 35.0806,83.2935 36.5806,82.4601 38,81.5C 38.8113,82.9597 39.6446,83.293 40.5,82.5C 39.099,80.7227 37.599,79.056 36,77.5C 35.0255,79.8776 34.3589,79.5443 34,76.5C 32.7246,78.7173 31.7246,81.0506 31,83.5C 30.5,83 30,82.5 29.5,82C 29.6938,80.0967 29.6938,78.2633 29.5,76.5C 30.2739,75.2888 31.1072,75.2888 32,76.5C 32.918,74.3676 34.2513,73.701 36,74.5C 36.4643,73.9056 36.631,73.2389 36.5,72.5C 38.2018,70.1998 38.8685,67.5331 38.5,64.5C 38.56,63.9569 38.8933,63.6236 39.5,63.5C 40.1667,64.1667 40.8333,64.8333 41.5,65.5C 42.4255,64.3595 43.2588,64.3595 44,65.5C 45.3333,62.8333 46.6667,62.8333 48,65.5C 48.6891,64.6433 49.5224,63.9767 50.5,63.5C 50.3046,60.5456 50.638,57.879 51.5,55.5C 52.3081,55.8076 52.9747,56.3076 53.5,57C 52.5494,57.7175 52.3828,58.5509 53,59.5C 54.5998,58.1341 56.4332,57.1341 58.5,56.5C 57.0535,56.3322 55.3868,55.6656 53.5,54.5C 52.4937,53.6043 52.4937,52.9377 53.5,52.5C 56.5394,53.5686 59.5394,54.7353 62.5,56C 61.8333,56.3333 61.1667,56.6667 60.5,57C 62.5,58.3333 64.5,59.6667 66.5,61C 65.5697,62.1939 64.9031,63.5272 64.5,65C 65.8333,66.6667 65.8333,68.3333 64.5,70C 66.9639,72.1648 66.9639,74.1648 64.5,76C 64.8333,76.3333 65.1667,76.6667 65.5,77C 64.8095,78.0674 64.3095,79.2341 64,80.5C 63.6667,79.5 63.3333,78.5 63,77.5C 61.4356,79.3697 61.4356,81.3697 63,83.5C 65.3333,79.0064 67.5,78.8398 69.5,83C 66.8281,82.4171 64.8281,83.5838 63.5,86.5C 63.1667,85.8333 62.8333,85.1667 62.5,84.5C 61.0499,85.8498 60.3832,87.5165 60.5,89.5C 59.209,89.2627 58.209,89.596 57.5,90.5 Z"/></g>
<g><path style="opacity:1" fill="#514a45" d="M 130.5,43.5 C 132.412,46.9186 134.912,49.9186 138,52.5C 138.667,62.5 138.667,72.5 138,82.5C 135.89,86.1157 133.056,88.7823 129.5,90.5C 129.795,97.2257 129.462,103.892 128.5,110.5C 127.975,111.192 127.308,111.692 126.5,112C 123.183,112.498 119.85,112.665 116.5,112.5C 114.983,112.489 113.816,111.823 113,110.5C 112.5,104.175 112.334,97.8421 112.5,91.5C 106.355,90.5098 100.022,90.1765 93.5,90.5C 95.2184,89.776 97.0517,89.1094 99,88.5C 104,89.8333 109,89.8333 114,88.5C 114.807,92.449 115.307,92.449 115.5,88.5C 116.978,88.238 118.311,88.5713 119.5,89.5C 116.74,89.5117 116.24,90.845 118,93.5C 118.333,92.8333 118.667,92.1667 119,91.5C 121.059,91.4459 123.226,91.6126 125.5,92C 124.78,89.8777 123.613,89.3777 122,90.5C 121.251,89.365 121.417,88.365 122.5,87.5C 124.529,88.6293 124.863,88.1293 123.5,86C 124.877,84.759 126.21,84.5923 127.5,85.5C 126.189,86.2575 125.689,87.2575 126,88.5C 126.667,87.1667 127.333,87.1667 128,88.5C 128.221,85.0569 129.221,84.7236 131,87.5C 131.658,85.892 131.158,84.7253 129.5,84C 129.25,82.4288 129.917,80.9288 131.5,79.5C 130.469,77.6178 129.635,75.6178 129,73.5C 128.051,77.3779 126.885,77.3779 125.5,73.5C 125.167,73.6667 124.833,73.8333 124.5,74C 125.227,75.3988 125.727,76.8988 126,78.5C 127.297,77.2164 128.464,77.3831 129.5,79C 128.692,79.3076 128.025,79.8076 127.5,80.5C 128.326,81.451 128.492,82.451 128,83.5C 126.171,81.8442 124.837,79.8442 124,77.5C 123.333,76.1667 122.667,76.1667 122,77.5C 121.342,75.892 121.842,74.7253 123.5,74C 121.323,72.7978 118.989,72.2978 116.5,72.5C 112.958,72.8128 109.625,72.4794 106.5,71.5C 115.085,71.8166 123.585,71.4832 132,70.5C 132.667,65.8333 132.667,61.1667 132,56.5C 131.5,56 131,55.5 130.5,55C 126.848,54.5014 123.182,54.3347 119.5,54.5C 119.877,52.742 120.544,51.0754 121.5,49.5C 120.132,48.4063 118.965,48.7397 118,50.5C 117.311,49.6433 116.478,48.9767 115.5,48.5C 113.253,49.3742 110.92,49.7076 108.5,49.5C 108.5,48.5 108.5,47.5 108.5,46.5C 105.951,46.4411 103.951,47.4411 102.5,49.5C 101.5,48.8333 100.5,48.1667 99.5,47.5C 98.4593,49.9913 97.6259,49.9913 97,47.5C 96.3109,48.3567 95.4776,49.0233 94.5,49.5C 92.7179,46.6179 90.8846,46.2846 89,48.5C 88.51,47.2068 88.3433,45.8734 88.5,44.5C 99.8333,45.1667 111.167,45.8333 122.5,46.5C 122.5,45.5 122.5,44.5 122.5,43.5C 124.138,42.8411 125.805,42.1744 127.5,41.5C 127.533,42.989 128.033,44.3224 129,45.5C 129.278,44.5842 129.778,43.9175 130.5,43.5 Z"/></g>
<g><path style="opacity:1" fill="#443f3d" d="M 116.5,72.5 C 118.989,72.2978 121.323,72.7978 123.5,74C 121.842,74.7253 121.342,75.892 122,77.5C 122.667,76.1667 123.333,76.1667 124,77.5C 124.837,79.8442 126.171,81.8442 128,83.5C 128.492,82.451 128.326,81.451 127.5,80.5C 128.025,79.8076 128.692,79.3076 129.5,79C 128.464,77.3831 127.297,77.2164 126,78.5C 125.727,76.8988 125.227,75.3988 124.5,74C 124.833,73.8333 125.167,73.6667 125.5,73.5C 126.885,77.3779 128.051,77.3779 129,73.5C 129.635,75.6178 130.469,77.6178 131.5,79.5C 129.917,80.9288 129.25,82.4288 129.5,84C 131.158,84.7253 131.658,85.892 131,87.5C 129.221,84.7236 128.221,85.0569 128,88.5C 127.333,87.1667 126.667,87.1667 126,88.5C 125.689,87.2575 126.189,86.2575 127.5,85.5C 126.21,84.5923 124.877,84.759 123.5,86C 124.863,88.1293 124.529,88.6293 122.5,87.5C 121.417,88.365 121.251,89.365 122,90.5C 123.613,89.3777 124.78,89.8777 125.5,92C 123.226,91.6126 121.059,91.4459 119,91.5C 118.667,92.1667 118.333,92.8333 118,93.5C 116.24,90.845 116.74,89.5117 119.5,89.5C 118.311,88.5713 116.978,88.238 115.5,88.5C 115.307,92.449 114.807,92.449 114,88.5C 109,89.8333 104,89.8333 99,88.5C 97.0517,89.1094 95.2184,89.776 93.5,90.5C 93.1667,90.5 92.8333,90.5 92.5,90.5C 91.2347,89.5207 89.9014,88.5207 88.5,87.5C 89.8233,82.9115 89.3233,82.5782 87,86.5C 87.4087,84.7749 87.2421,83.1082 86.5,81.5C 85.8333,83.5 85.1667,85.5 84.5,87.5C 83.8645,85.2054 82.5311,83.5387 80.5,82.5C 79.1667,85.1667 77.8333,85.1667 76.5,82.5C 75.3044,82.8457 75.3044,83.3457 76.5,84C 74.6731,85.6544 72.8398,86.4877 71,86.5C 70.3828,87.4491 70.5494,88.2825 71.5,89C 70.365,89.7494 69.365,89.5827 68.5,88.5C 67.9598,87.2519 67.2931,86.0852 66.5,85C 68.7924,86.1009 70.2924,85.2676 71,82.5C 72.6092,83.1501 74.1092,82.6501 75.5,81C 75.5544,79.6491 75.0544,78.4824 74,77.5C 72.416,77.9884 71.2494,78.9884 70.5,80.5C 66.4307,78.2186 66.7641,76.8853 71.5,76.5C 71.6399,74.8762 70.9733,73.7096 69.5,73C 70.4162,72.6258 71.2496,72.1258 72,71.5C 72.8624,73.087 73.5291,74.7536 74,76.5C 75.1218,75.0874 76.2885,74.2541 77.5,74C 75.3615,73.7408 73.6949,72.2408 72.5,69.5C 75.1289,68.8713 76.7956,67.2046 77.5,64.5C 79.7366,64.6938 81.9033,64.6938 84,64.5C 85.1707,62.3843 86.6707,61.7176 88.5,62.5C 87.0499,63.8498 86.3832,65.5165 86.5,67.5C 84.8561,67.2865 83.3561,67.6198 82,68.5C 81.1491,70.5921 80.4824,72.5921 80,74.5C 81.5848,73.6243 82.5848,72.2909 83,70.5C 83.2492,71.624 83.7492,72.624 84.5,73.5C 85.2913,72.9344 85.2913,72.101 84.5,71C 85.4787,67.6913 86.4787,67.6913 87.5,71C 86.2943,75.3641 86.7943,75.5307 89,71.5C 89.6368,73.3031 90.8035,74.6364 92.5,75.5C 92.0233,76.4776 91.3567,77.3109 90.5,78C 92.1686,78.1218 93.8353,77.7885 95.5,77C 94.6919,76.6924 94.0253,76.1924 93.5,75.5C 94.2458,74.2638 94.5792,72.9305 94.5,71.5C 95.8734,71.6567 97.2068,71.49 98.5,71C 98.1667,70.6667 97.8333,70.3333 97.5,70C 99.1371,68.049 100.637,68.2157 102,70.5C 102.333,69.8333 102.667,69.1667 103,68.5C 104.862,70.3607 104.362,71.6941 101.5,72.5C 103.083,72.6178 104.749,73.4511 106.5,75C 106.167,75.3333 105.833,75.6667 105.5,76C 106.766,76.3095 107.933,76.8095 109,77.5C 109.118,75.4267 110.118,74.0933 112,73.5C 113.873,75.8619 115.373,75.5285 116.5,72.5 Z"/></g>
<g><path style="opacity:1" fill="#494440" d="M 15.5,72.5 C 22.5,72.5 29.5,72.5 36.5,72.5C 36.631,73.2389 36.4643,73.9056 36,74.5C 34.2513,73.701 32.918,74.3676 32,76.5C 31.1072,75.2888 30.2739,75.2888 29.5,76.5C 29.6938,78.2633 29.6938,80.0967 29.5,82C 30,82.5 30.5,83 31,83.5C 31.7246,81.0506 32.7246,78.7173 34,76.5C 34.3589,79.5443 35.0255,79.8776 36,77.5C 37.599,79.056 39.099,80.7227 40.5,82.5C 39.6446,83.293 38.8113,82.9597 38,81.5C 36.5806,82.4601 35.0806,83.2935 33.5,84C 34.1667,84.3333 34.8333,84.6667 35.5,85C 34.0439,85.4226 33.5439,86.2559 34,87.5C 36.5357,87.8577 39.2024,87.8577 42,87.5C 43.6424,87.9778 44.8091,88.9778 45.5,90.5C 40.8333,90.5 36.1667,90.5 31.5,90.5C 31.5,95.1667 31.5,99.8333 31.5,104.5C 32.1717,107.942 31.1717,110.609 28.5,112.5C 24.4862,112.666 20.4862,112.499 16.5,112C 16,111.5 15.5,111 15,110.5C 14.5004,103.842 14.3337,97.175 14.5,90.5C 10.9666,89.9709 8.63325,87.9709 7.5,84.5C 7.23798,83.0222 7.57131,81.6888 8.5,80.5C 9.98902,80.4669 11.3224,79.9669 12.5,79C 10.7888,77.8668 10.2888,76.3668 11,74.5C 12.4229,76.3451 13.5896,78.3451 14.5,80.5C 15.3081,80.1924 15.9747,79.6924 16.5,79C 15.8311,76.7377 15.4977,74.571 15.5,72.5 Z"/></g>
<g><path style="opacity:1" fill="#f7f4ef" d="M 45.5,90.5 C 49.5,90.5 53.5,90.5 57.5,90.5C 69.1667,90.5 80.8333,90.5 92.5,90.5C 92.8333,90.5 93.1667,90.5 93.5,90.5C 100.022,90.1765 106.355,90.5098 112.5,91.5C 102.5,91.5 92.5,91.5 82.5,91.5C 76.3339,92.1422 70.8339,94.4755 66,98.5C 65.6667,98.1667 65.3333,97.8333 65,97.5C 63.9563,98.6226 63.2896,99.9559 63,101.5C 62.586,101.043 62.086,100.709 61.5,100.5C 60.6922,102.423 60.1922,104.423 60,106.5C 59.3311,103.972 58.4978,103.972 57.5,106.5C 57.9767,107.478 58.6433,108.311 59.5,109C 57.9411,109.98 56.2744,110.813 54.5,111.5C 55.2472,111.736 56.0805,112.07 57,112.5C 57.6667,113.167 57.6667,113.833 57,114.5C 55.9887,113.663 54.8221,113.33 53.5,113.5C 53.6602,111.801 53.4935,110.134 53,108.5C 52.3946,110.481 51.3946,110.815 50,109.5C 51.8158,117.012 49.6491,118.012 43.5,112.5C 42.8333,112.833 42.1667,113.167 41.5,113.5C 40.7379,112.372 40.0712,111.205 39.5,110C 40.8333,109 40.8333,108 39.5,107C 41.108,106.342 42.2747,106.842 43,108.5C 44.5998,107.134 46.4332,106.134 48.5,105.5C 47.7026,103.868 46.7026,102.368 45.5,101C 46.7939,100.894 47.4606,99.8939 47.5,98C 47.2451,96.6739 46.5784,95.6739 45.5,95C 46.5,94.6667 47.5,94.3333 48.5,94C 48.1667,93.6667 47.8333,93.3333 47.5,93C 45.3752,93.7061 43.3752,94.2061 41.5,94.5C 42,95.5 42.5,96.5 43,97.5C 43.7175,96.5494 44.5509,96.3828 45.5,97C 43.9095,98.0458 42.4095,99.2125 41,100.5C 40.3162,99.2161 40.4829,98.0495 41.5,97C 40.1011,96.4054 38.7678,96.5721 37.5,97.5C 36.4495,96.1152 35.1161,95.1152 33.5,94.5C 33.2802,97.7952 32.6136,101.129 31.5,104.5C 31.5,99.8333 31.5,95.1667 31.5,90.5C 36.1667,90.5 40.8333,90.5 45.5,90.5 Z"/></g>
<g><path style="opacity:1" fill="#fbf7f1" d="M 15.5,35.5 C 14.7837,38.5982 13.7837,41.5982 12.5,44.5C 10.9252,47.5821 8.7585,50.2488 6,52.5C 5.33333,62.5 5.33333,72.5 6,82.5C 6.27842,83.4158 6.77842,84.0825 7.5,84.5C 8.63325,87.9709 10.9666,89.9709 14.5,90.5C 14.3337,97.175 14.5004,103.842 15,110.5C 15.5,111 16,111.5 16.5,112C 20.4862,112.499 24.4862,112.666 28.5,112.5C 25.3905,113.132 23.0572,114.132 21.5,115.5C 21.4326,116.959 21.7659,118.292 22.5,119.5C 14.8333,119.5 7.16667,119.5 -0.5,119.5C -0.5,91.8333 -0.5,64.1667 -0.5,36.5C 0.264561,36.0766 1.09789,35.7432 2,35.5C 4.6164,36.1159 7.28307,37.1159 10,38.5C 10.3333,37.8333 10.6667,37.1667 11,36.5C 12.0495,37.5171 13.2161,37.6838 14.5,37C 12.0684,35.9125 12.4017,35.4125 15.5,35.5 Z"/></g>
<g><path style="opacity:1" fill="#fdfaf5" d="M 82.5,91.5 C 92.5,91.5 102.5,91.5 112.5,91.5C 112.334,97.8421 112.5,104.175 113,110.5C 113.816,111.823 114.983,112.489 116.5,112.5C 116.369,113.239 116.536,113.906 117,114.5C 119.401,113.398 121.901,113.231 124.5,114C 123.377,115.044 122.044,115.71 120.5,116C 122.674,117.686 124.674,118.852 126.5,119.5C 110.833,119.5 95.1667,119.5 79.5,119.5C 81.2922,118.691 83.2922,118.191 85.5,118C 84.6721,117.085 83.6721,116.419 82.5,116C 83.7839,115.316 84.9505,115.483 86,116.5C 87.6883,115.675 87.8549,114.675 86.5,113.5C 87.09,112.201 88.09,111.368 89.5,111C 88.7286,109.002 89.3952,107.335 91.5,106C 88.9649,105.383 86.6316,105.883 84.5,107.5C 82.0695,106.194 82.4028,105.194 85.5,104.5C 84.7366,103.281 83.7366,102.281 82.5,101.5C 83.5709,99.6745 82.9042,98.5079 80.5,98C 80.2046,95.0529 80.8713,92.8862 82.5,91.5 Z"/></g>
<g><path style="opacity:1" fill="#fefcf5" d="M 82.5,91.5 C 80.8713,92.8862 80.2046,95.0529 80.5,98C 82.9042,98.5079 83.5709,99.6745 82.5,101.5C 83.7366,102.281 84.7366,103.281 85.5,104.5C 82.4028,105.194 82.0695,106.194 84.5,107.5C 86.6316,105.883 88.9649,105.383 91.5,106C 89.3952,107.335 88.7286,109.002 89.5,111C 88.09,111.368 87.09,112.201 86.5,113.5C 87.8549,114.675 87.6883,115.675 86,116.5C 84.9505,115.483 83.7839,115.316 82.5,116C 83.6721,116.419 84.6721,117.085 85.5,118C 83.2922,118.191 81.2922,118.691 79.5,119.5C 60.5,119.5 41.5,119.5 22.5,119.5C 21.7659,118.292 21.4326,116.959 21.5,115.5C 23.0572,114.132 25.3905,113.132 28.5,112.5C 31.1717,110.609 32.1717,107.942 31.5,104.5C 32.6136,101.129 33.2802,97.7952 33.5,94.5C 35.1161,95.1152 36.4495,96.1152 37.5,97.5C 38.7678,96.5721 40.1011,96.4054 41.5,97C 40.4829,98.0495 40.3162,99.2161 41,100.5C 42.4095,99.2125 43.9095,98.0458 45.5,97C 44.5509,96.3828 43.7175,96.5494 43,97.5C 42.5,96.5 42,95.5 41.5,94.5C 43.3752,94.2061 45.3752,93.7061 47.5,93C 47.8333,93.3333 48.1667,93.6667 48.5,94C 47.5,94.3333 46.5,94.6667 45.5,95C 46.5784,95.6739 47.2451,96.6739 47.5,98C 47.4606,99.8939 46.7939,100.894 45.5,101C 46.7026,102.368 47.7026,103.868 48.5,105.5C 46.4332,106.134 44.5998,107.134 43,108.5C 42.2747,106.842 41.108,106.342 39.5,107C 40.8333,108 40.8333,109 39.5,110C 40.0712,111.205 40.7379,112.372 41.5,113.5C 42.1667,113.167 42.8333,112.833 43.5,112.5C 49.6491,118.012 51.8158,117.012 50,109.5C 51.3946,110.815 52.3946,110.481 53,108.5C 53.4935,110.134 53.6602,111.801 53.5,113.5C 54.8221,113.33 55.9887,113.663 57,114.5C 57.6667,113.833 57.6667,113.167 57,112.5C 56.0805,112.07 55.2472,111.736 54.5,111.5C 56.2744,110.813 57.9411,109.98 59.5,109C 58.6433,108.311 57.9767,107.478 57.5,106.5C 58.4978,103.972 59.3311,103.972 60,106.5C 60.1922,104.423 60.6922,102.423 61.5,100.5C 62.086,100.709 62.586,101.043 63,101.5C 63.2896,99.9559 63.9563,98.6226 65,97.5C 65.3333,97.8333 65.6667,98.1667 66,98.5C 70.8339,94.4755 76.3339,92.1422 82.5,91.5 Z"/></g>
</svg>